<svg xmlns="http://www.w3.org/2000/svg" viewBox="0 0 1920 1920">
  <path d="M470.9 418.8s229.4 111.6 302 61.4C929.7 371.4 962 467.9 962 467.9s335.3 252.6-17.3 252.5c-289-.1-5.2-255.8-5.2-255.8s119.2-48.2 189.3-29.7c197.2 52 304.1-59.8 304.1-59.8" fill="none" stroke="#000" stroke-width="34.6945"/>
  <g transform="rotate(-179.9 744.7 762.7) scale(.69389)" fill-rule="evenodd">
    <rect width="531.6" height="165.9" x="2199.2" y="510.1" transform="rotate(31.7)" rx="20" ry="20"/>
    <rect width="142.1" height="117" x="2075" y="531.6" transform="rotate(31.7)" ry="10" rx="10"/>
    <path d="M2037.6 1884.8a59.3 43.8-58.5 0115.7 50.9 59.3 43.8-58.5 01-39.7 50.5 59.3 43.8-58.5 01-48-9.8l41-41z"/>
  </g>
  <g transform="rotate(-179.9 744.7 762.7) scale(.69389)" fill-rule="evenodd">
    <rect width="139.1" height="117.8" x="-828" y="1437.8" rx="10" ry="10" transform="rotate(-28.6)"/>
    <rect width="568.4" height="169.3" x="-1374.1" y="1405.2" rx="20" ry="20" transform="rotate(-28.8)"/>
    <path d="M-436.9 2006.8a59 56.1 53.8 01-58.2 4.2 59 56.1 53.8 01-33.7-50.4 59 56.1 53.8 0126.3-51.9"/>
  </g>
  <g transform="translate(302.8 161.3) scale(.8613)">
    <circle cx="763.1" cy="1227" r="700" fill-rule="evenodd"/>
    <circle cx="759.4" cy="1218.7" r="600" stroke="#fff" stroke-width="50"/>
  </g>
  <g style="line-height:25px;-inkscape-font-specification:Verdana" aria-label="1" font-weight="400" font-size="40" font-family="Verdana" letter-spacing="0" word-spacing="0">
    <path d="M1172.3 1537H747.7v-111h134.1v-336.3H747.7V986q30.7 0 59-3.4 28.1-3.8 47-12.8 22.1-10.7 33.2-27.8 11.1-17 12.9-42.7h141.4V1426h131.1z" font-weight="700" font-size="1083.6" fill="#fff"/>
  </g>
</svg>
